HIERARCHY
ROOT newVegas:Hips
{
	OFFSET 0.000000 96.479958 0.000000
	CHANNELS 6 Xposition Yposition Zposition Xrotation Yrotation Zrotation
	JOINT newVegas:Pelvis
	{
		OFFSET 0.000000 0.000000 0.000000
		CHANNELS 3 Xrotation Yrotation Zrotation
		JOINT newVegas:LeftUpLeg
		{
			OFFSET 18.735201 -5.666702 -4.541200
			CHANNELS 3 Xrotation Yrotation Zrotation
			JOINT newVegas:LeftLeg
			{
				OFFSET -0.021200 -31.938179 0.493100
				CHANNELS 3 Xrotation Yrotation Zrotation
				JOINT newVegas:LeftFoot
				{
					OFFSET 0.021200 -31.938179 -4.336299
					CHANNELS 3 Xrotation Yrotation Zrotation
					JOINT newVegas:LeftToeBase
					{
						OFFSET 0.943001 -26.722000 15.023500
						CHANNELS 3 Xrotation Yrotation Zrotation
						End Site
						{
							OFFSET 0.000000 30.670183 0.000000
						}
					}
				}
				JOINT newVegas:Left_PantLeg
				{
					OFFSET 0.663870 -9.044666 -1.108900
					CHANNELS 3 Xrotation Yrotation Zrotation
					End Site
					{
						OFFSET 1.415995 20.635357 0.000000
					}
				}
			}
		}
		JOINT newVegas:RightUpLeg
		{
			OFFSET -18.735201 -5.666702 -4.541200
			CHANNELS 3 Xrotation Yrotation Zrotation
			JOINT newVegas:RightLeg
			{
				OFFSET 0.018946 -31.938133 0.493100
				CHANNELS 3 Xrotation Yrotation Zrotation
				JOINT newVegas:RightFoot
				{
					OFFSET -0.018946 -31.938126 -4.336299
					CHANNELS 3 Xrotation Yrotation Zrotation
					JOINT newVegas:RightToeBase
					{
						OFFSET -0.943001 -26.722004 15.023500
						CHANNELS 3 Xrotation Yrotation Zrotation
						End Site
						{
							OFFSET 0.000000 30.670187 0.000000
						}
					}
				}
				JOINT newVegas:Right_PantLeg
				{
					OFFSET -0.661674 -9.044716 -1.108900
					CHANNELS 3 Xrotation Yrotation Zrotation
					End Site
					{
						OFFSET -1.415958 20.635269 0.000000
					}
				}
			}
		}
	}
	JOINT newVegas:Spine
	{
		OFFSET 0.000000 10.199997 -0.299500
		CHANNELS 3 Xrotation Yrotation Zrotation
		JOINT newVegas:Spine1
		{
			OFFSET 0.000000 11.900002 -1.516600
			CHANNELS 3 Xrotation Yrotation Zrotation
			JOINT newVegas:Spine2
			{
				OFFSET 0.000000 13.600006 -2.842500
				CHANNELS 3 Xrotation Yrotation Zrotation
				JOINT newVegas:Neck
				{
					OFFSET 0.000000 9.624100 -2.890100
					CHANNELS 3 Xrotation Yrotation Zrotation
					JOINT newVegas:Head
					{
						OFFSET 0.000000 14.068802 -1.351900
						CHANNELS 3 Xrotation Yrotation Zrotation
						JOINT newVegas:Hair_Back
						{
							OFFSET 0.000000 3.231903 -17.524799
							CHANNELS 3 Xrotation Yrotation Zrotation
							End Site
							{
								OFFSET 0.000000 19.849884 0.000000
							}
						}
						JOINT newVegas:Hair_Front
						{
							OFFSET 0.000000 31.260406 4.573800
							CHANNELS 3 Xrotation Yrotation Zrotation
							JOINT newVegas:Hair_Front1
							{
								OFFSET 0.000000 2.284103 11.993300
								CHANNELS 3 Xrotation Yrotation Zrotation
								JOINT newVegas:Hair_Front2
								{
									OFFSET 0.000000 2.284103 11.993300
									CHANNELS 3 Xrotation Yrotation Zrotation
									End Site
									{
										OFFSET 0.000000 12.208862 0.000000
									}
								}
							}
						}
						JOINT newVegas:Jowel
						{
							OFFSET 0.000000 -7.458206 6.864100
							CHANNELS 3 Xrotation Yrotation Zrotation
							End Site
							{
								OFFSET 0.000000 19.849884 0.000000
							}
						}
					}
				}
				JOINT newVegas:LeftShoulder
				{
					OFFSET 15.263000 10.923401 -0.547700
					CHANNELS 3 Xrotation Yrotation Zrotation
					JOINT newVegas:LeftArm
					{
						OFFSET 25.438599 -2.830597 -13.032500
						CHANNELS 3 Xrotation Yrotation Zrotation
						JOINT newVegas:LeftForeArm
						{
							OFFSET 29.960503 0.000000 0.000000
							CHANNELS 3 Xrotation Yrotation Zrotation
							JOINT newVegas:LeftHand
							{
								OFFSET 27.849251 0.000000 0.000000
								CHANNELS 3 Xrotation Yrotation Zrotation
								JOINT newVegas:LeftHandThumb1
								{
									OFFSET 4.487587 -3.305161 6.305391
									CHANNELS 3 Xrotation Yrotation Zrotation
									JOINT newVegas:LeftHandThumb2
									{
										OFFSET 5.480453 -3.164139 3.164143
										CHANNELS 3 Xrotation Yrotation Zrotation
										JOINT newVegas:LeftHandThumb3
										{
											OFFSET 5.159721 -2.978973 2.978967
											CHANNELS 3 Xrotation Yrotation Zrotation
											End Site
											{
												OFFSET 2.494507 5.926697 1.738678
											}
										}
									}
								}
								JOINT newVegas:LeftHandIndex1
								{
									OFFSET 18.578728 -0.527832 5.208049
									CHANNELS 3 Xrotation Yrotation Zrotation
									JOINT newVegas:LeftHandIndex2
									{
										OFFSET 3.192009 0.000000 0.000000
										CHANNELS 3 Xrotation Yrotation Zrotation
										JOINT newVegas:LeftHandIndex3
										{
											OFFSET 3.835129 0.000000 0.000000
											CHANNELS 3 Xrotation Yrotation Zrotation
											End Site
											{
												OFFSET -0.034599 3.816971 0.371180
											}
										}
									}
								}
								JOINT newVegas:LeftHandMiddle1
								{
									OFFSET 18.476105 0.000000 0.000000
									CHANNELS 3 Xrotation Yrotation Zrotation
									JOINT newVegas:LeftHandMiddle2
									{
										OFFSET 3.324875 0.000000 0.000000
										CHANNELS 3 Xrotation Yrotation Zrotation
										JOINT newVegas:LeftHandMiddle3
										{
											OFFSET 4.596550 0.000000 0.000000
											CHANNELS 3 Xrotation Yrotation Zrotation
											End Site
											{
												OFFSET 0.057701 4.578827 0.399218
											}
										}
									}
								}
								JOINT newVegas:LeftHandRing1
								{
									OFFSET 17.732719 0.121887 -4.201567
									CHANNELS 3 Xrotation Yrotation Zrotation
									JOINT newVegas:LeftHandRing2
									{
										OFFSET 2.733170 0.000000 0.000000
										CHANNELS 3 Xrotation Yrotation Zrotation
										JOINT newVegas:LeftHandRing3
										{
											OFFSET 3.178268 0.000000 0.000000
											CHANNELS 3 Xrotation Yrotation Zrotation
											End Site
											{
												OFFSET 0.119102 3.170624 0.185394
											}
										}
									}
								}
								JOINT newVegas:LeftHandPinky1
								{
									OFFSET 15.989624 -0.606689 -7.535461
									CHANNELS 3 Xrotation Yrotation Zrotation
									JOINT newVegas:LeftHandPinky2
									{
										OFFSET 2.538986 0.000000 0.000000
										CHANNELS 3 Xrotation Yrotation Zrotation
										JOINT newVegas:LeftHandPinky3
										{
											OFFSET 2.593102 0.000000 0.000000
											CHANNELS 3 Xrotation Yrotation Zrotation
											End Site
											{
												OFFSET -0.150902 2.584198 0.152708
											}
										}
									}
								}
							}
							JOINT newVegas:Left_Sleeve
							{
								OFFSET 0.267448 -0.649796 0.577675
								CHANNELS 3 Xrotation Yrotation Zrotation
								End Site
								{
									OFFSET 0.000000 15.991241 0.000000
								}
							}
							JOINT newVegas:Left_CapeC
							{
								OFFSET 15.715958 -8.608795 -6.935905
								CHANNELS 3 Xrotation Yrotation Zrotation
								JOINT newVegas:Left_CapeC1
								{
									OFFSET 0.000000 -8.688499 0.000000
									CHANNELS 3 Xrotation Yrotation Zrotation
									End Site
									{
										OFFSET 0.000000 8.688499 0.000000
									}
								}
							}
						}
						JOINT newVegas:Left_CapeB
						{
							OFFSET 26.118385 -8.608795 -7.079235
							CHANNELS 3 Xrotation Yrotation Zrotation
							JOINT newVegas:Left_CapeB1
							{
								OFFSET 0.000000 -8.688499 0.000000
								CHANNELS 3 Xrotation Yrotation Zrotation
								End Site
								{
									OFFSET 0.000000 8.688499 0.000000
								}
							}
						}
						JOINT newVegas:Left_CapeA
						{
							OFFSET 5.115639 -8.608795 -10.395809
							CHANNELS 3 Xrotation Yrotation Zrotation
							JOINT newVegas:Left_CapeA1
							{
								OFFSET 0.000000 -8.688499 0.000000
								CHANNELS 3 Xrotation Yrotation Zrotation
								End Site
								{
									OFFSET 0.000000 8.688499 0.000000
								}
							}
						}
					}
				}
				JOINT newVegas:RightShoulder
				{
					OFFSET -15.263000 10.923401 -0.547700
					CHANNELS 3 Xrotation Yrotation Zrotation
					JOINT newVegas:RightArm
					{
						OFFSET -25.438599 -2.830597 -13.032500
						CHANNELS 3 Xrotation Yrotation Zrotation
						JOINT newVegas:RightForeArm
						{
							OFFSET -29.960503 0.000000 0.000000
							CHANNELS 3 Xrotation Yrotation Zrotation
							JOINT newVegas:RightHand
							{
								OFFSET -27.849251 0.000000 0.000000
								CHANNELS 3 Xrotation Yrotation Zrotation
								JOINT newVegas:RightHandThumb1
								{
									OFFSET -4.487587 -3.305161 6.305391
									CHANNELS 3 Xrotation Yrotation Zrotation
									JOINT newVegas:RightHandThumb2
									{
										OFFSET -5.480453 -3.164139 3.164143
										CHANNELS 3 Xrotation Yrotation Zrotation
										JOINT newVegas:RightHandThumb3
										{
											OFFSET -5.159721 -2.978973 2.978967
											CHANNELS 3 Xrotation Yrotation Zrotation
											End Site
											{
												OFFSET -2.494507 5.926697 1.738678
											}
										}
									}
								}
								JOINT newVegas:RightHandIndex1
								{
									OFFSET -18.578728 -0.527832 5.208049
									CHANNELS 3 Xrotation Yrotation Zrotation
									JOINT newVegas:RightHandIndex2
									{
										OFFSET -3.192009 0.000000 0.000000
										CHANNELS 3 Xrotation Yrotation Zrotation
										JOINT newVegas:RightHandIndex3
										{
											OFFSET -3.835129 0.000000 0.000000
											CHANNELS 3 Xrotation Yrotation Zrotation
											End Site
											{
												OFFSET 0.034599 3.816971 0.371180
											}
										}
									}
								}
								JOINT newVegas:RightHandMiddle1
								{
									OFFSET -18.476105 0.000000 0.000000
									CHANNELS 3 Xrotation Yrotation Zrotation
									JOINT newVegas:RightHandMiddle2
									{
										OFFSET -3.324875 0.000000 0.000000
										CHANNELS 3 Xrotation Yrotation Zrotation
										JOINT newVegas:RightHandMiddle3
										{
											OFFSET -4.596550 0.000000 0.000000
											CHANNELS 3 Xrotation Yrotation Zrotation
											End Site
											{
												OFFSET -0.057701 4.578827 0.399218
											}
										}
									}
								}
								JOINT newVegas:RightHandRing1
								{
									OFFSET -17.732719 0.121887 -4.201567
									CHANNELS 3 Xrotation Yrotation Zrotation
									JOINT newVegas:RightHandRing2
									{
										OFFSET -2.733170 0.000000 0.000000
										CHANNELS 3 Xrotation Yrotation Zrotation
										JOINT newVegas:RightHandRing3
										{
											OFFSET -3.178268 0.000000 0.000000
											CHANNELS 3 Xrotation Yrotation Zrotation
											End Site
											{
												OFFSET -0.119102 3.170624 0.185394
											}
										}
									}
								}
								JOINT newVegas:RightHandPinky1
								{
									OFFSET -15.989624 -0.606689 -7.535461
									CHANNELS 3 Xrotation Yrotation Zrotation
									JOINT newVegas:RightHandPinky2
									{
										OFFSET -2.538986 0.000000 0.000000
										CHANNELS 3 Xrotation Yrotation Zrotation
										JOINT newVegas:RightHandPinky3
										{
											OFFSET -2.593102 0.000000 0.000000
											CHANNELS 3 Xrotation Yrotation Zrotation
											End Site
											{
												OFFSET 0.150902 2.584198 0.152708
											}
										}
									}
								}
							}
							JOINT newVegas:Right_CapeC
							{
								OFFSET -15.715958 -8.608795 -6.935905
								CHANNELS 3 Xrotation Yrotation Zrotation
								JOINT newVegas:Right_CapeC1
								{
									OFFSET 0.000000 -8.688499 0.000000
									CHANNELS 3 Xrotation Yrotation Zrotation
									End Site
									{
										OFFSET 0.000000 8.688499 0.000000
									}
								}
							}
							JOINT newVegas:Right_Sleeve
							{
								OFFSET -0.267448 -0.649994 0.577675
								CHANNELS 3 Xrotation Yrotation Zrotation
								End Site
								{
									OFFSET 0.000000 15.991302 0.000000
								}
							}
						}
						JOINT newVegas:Right_CapeA
						{
							OFFSET -5.115540 -8.608795 -10.395824
							CHANNELS 3 Xrotation Yrotation Zrotation
							JOINT newVegas:Right_CapeA1
							{
								OFFSET 0.000000 -8.688499 0.000000
								CHANNELS 3 Xrotation Yrotation Zrotation
								End Site
								{
									OFFSET 0.000000 8.688499 0.000000
								}
							}
						}
						JOINT newVegas:Right_CapeB
						{
							OFFSET -26.118187 -8.608795 -7.079266
							CHANNELS 3 Xrotation Yrotation Zrotation
							JOINT newVegas:Right_CapeB1
							{
								OFFSET 0.000000 -8.688499 0.000000
								CHANNELS 3 Xrotation Yrotation Zrotation
								End Site
								{
									OFFSET 0.000000 8.688499 0.000000
								}
							}
						}
					}
				}
				JOINT newVegas:Left_Collar
				{
					OFFSET 18.625099 8.655502 8.828100
					CHANNELS 3 Xrotation Yrotation Zrotation
					JOINT newVegas:Left_Collar1
					{
						OFFSET 14.783401 10.540405 -1.259500
						CHANNELS 3 Xrotation Yrotation Zrotation
						End Site
						{
							OFFSET 0.000000 18.199875 0.000000
						}
					}
				}
				JOINT newVegas:Collar_Back
				{
					OFFSET 0.000000 15.630707 -20.132601
					CHANNELS 3 Xrotation Yrotation Zrotation
					End Site
					{
						OFFSET 0.000000 22.523010 0.000000
					}
				}
				JOINT newVegas:Left_Peck
				{
					OFFSET 17.239599 -5.132599 25.482599
					CHANNELS 3 Xrotation Yrotation Zrotation
					End Site
					{
						OFFSET 0.000000 22.523010 0.000000
					}
				}
				JOINT newVegas:Right_Peck
				{
					OFFSET -17.239599 -5.132202 25.482599
					CHANNELS 3 Xrotation Yrotation Zrotation
					End Site
					{
						OFFSET 0.000000 22.523010 0.000000
					}
				}
				JOINT newVegas:Right_Collar
				{
					OFFSET -18.625099 8.655792 8.828100
					CHANNELS 3 Xrotation Yrotation Zrotation
					JOINT newVegas:Right_Collar1
					{
						OFFSET -14.783401 10.539993 -1.259500
						CHANNELS 3 Xrotation Yrotation Zrotation
						End Site
						{
							OFFSET 0.000000 18.199631 0.000000
						}
					}
				}
			}
		}
		JOINT newVegas:Belly
		{
			OFFSET 0.000000 -6.540398 9.014299
			CHANNELS 3 Xrotation Yrotation Zrotation
			End Site
			{
				OFFSET 0.000000 11.566666 0.000000
			}
		}
	}
	JOINT newVegas:ElvisFacialAnim_Joint
	{
		OFFSET 1.000000 -95.330101 -8.825800
		CHANNELS 3 Xrotation Yrotation Zrotation
		End Site
		{
			OFFSET 0.000000 35.315800 0.000000
		}
	}
}
MOTION
Frames: 4
Frame Time: 0.033333
8.166483 82.735573 1.182614 -2.844822 -61.555803 -2.389243 -0.000000 0.000001 0.000000 -43.197764 9.494787 35.060864 55.017679 6.684080 -0.387209 -2.602656 10.000071 -19.304071 -0.000000 0.000000 0.000000 -0.000000 -0.000001 -0.000000 -20.994668 -14.013606 -36.917903 46.572041 5.997597 -0.712469 -21.268190 -8.392031 30.953219 0.000000 -0.000000 -0.000000 0.000000 0.000000 -0.000002 9.347893 -0.773295 -0.732168 2.819927 -0.168380 -1.180587 2.817406 -0.190967 -1.180401 0.971318 2.858021 0.228487 0.971311 2.857990 0.228500 0.000000 0.000000 0.000000 0.971314 2.858035 0.228484 0.971386 2.858008 0.228483 -0.000002 0.000002 -0.000000 0.000000 0.000000 -0.000000 0.510377 -12.950285 -10.628898 -14.455450 4.924857 -35.614819 0.000007 -45.567296 -0.000000 16.074162 -13.637043 14.865473 -0.053290 5.013284 7.154771 -0.966510 24.316824 1.395930 -0.000001 0.000001 -0.000003 6.781428 6.908483 -83.985529 6.728824 6.879527 -88.728187 -0.000002 -0.000003 0.000001 5.692845 6.778275 -80.117224 7.476680 6.855486 -94.976485 0.000001 -0.000002 0.000000 5.344465 6.757495 -83.942451 8.136869 6.766183 -100.539066 -0.000000 -0.000002 -0.000001 8.174566 7.083534 -83.174417 8.017661 2.700444 -99.510706 -0.000001 -0.000005 -0.000002 0.000001 0.000006 0.000002 0.000001 0.000006 0.000002 0.000001 0.000005 0.000002 -0.000001 0.000000 -0.000001 0.000000 -0.000000 -0.000004 -0.000001 0.000000 -0.000001 -0.000001 0.000000 -0.000001 0.570471 15.850695 9.869419 15.647661 26.350513 59.177606 -0.000545 98.959428 0.000543 5.972674 1.934351 -12.285113 -4.787120 -7.380647 -0.969376 17.294792 -25.325392 -0.358873 0.000004 0.000000 -0.000002 7.105282 -6.974244 86.153923 6.794367 -6.946519 88.727996 -0.000001 0.000000 -0.000003 6.699177 -6.943768 88.026064 8.101356 -6.852304 99.576092 0.000001 -0.000002 -0.000002 5.894426 -6.916489 88.045243 8.096900 -6.853084 99.538696 -0.000000 0.000001 -0.000001 4.179051 -6.669001 83.200617 8.100936 -6.852392 99.572683 0.000002 -0.000000 0.000000 0.000000 -0.000000 -0.000000 -0.000000 0.000000 0.000000 0.000000 -0.000001 0.000000 0.000000 0.000000 -0.000000 0.000000 0.000000 -0.000000 0.000000 0.000000 -0.000000 0.000000 -0.000000 -0.000000 -0.000000 -0.000001 -0.000000 -0.000000 -0.000001 -0.000000 -0.000000 -0.000001 -0.000000 -0.000000 -0.000001 -0.000000 -0.000000 -0.000001 -0.000000 -0.000000 -0.000001 -0.000000 -0.000000 -0.000001 -0.000000 0.000000 -0.000000 0.000000 -0.000000 0.000001 0.000000 
8.104060 82.801025 1.107125 -2.615346 -61.363171 -2.078677 0.000000 0.000002 -0.000000 -43.121173 9.543471 34.824758 54.469461 6.689869 -0.348333 -2.162247 10.014011 -19.286817 -0.000000 0.000000 0.000000 -0.000000 -0.000002 0.000000 -20.880413 -14.053077 -36.875519 46.502923 5.723721 -0.697096 -21.290794 -8.423303 31.015124 -0.000000 0.000000 0.000000 0.000001 -0.000000 -0.000002 9.281944 -0.801048 -0.749578 2.814435 -0.177360 -1.182676 2.811833 -0.199670 -1.182553 0.967911 2.857659 0.203577 0.967916 2.857654 0.203574 -0.000000 -0.000001 0.000000 0.967918 2.857670 0.203573 0.967915 2.857628 0.203582 -0.000001 -0.000004 0.000002 -0.000000 -0.000001 0.000001 0.508312 -12.817690 -10.674651 -14.538128 4.908194 -35.490814 0.000003 -46.160177 -0.000002 15.777834 -13.520328 14.744247 -0.053287 5.013307 7.154778 -0.966505 24.316804 1.395927 -0.000001 -0.000001 -0.000006 6.781428 6.908504 -83.985536 6.728851 6.879512 -88.728187 0.000001 -0.000001 -0.000000 5.692834 6.778282 -80.117204 7.476676 6.855478 -94.976485 0.000003 0.000004 -0.000001 5.344470 6.757503 -83.942451 8.136881 6.766175 -100.539094 0.000002 -0.000001 0.000001 8.174562 7.083547 -83.174403 8.017654 2.700447 -99.510706 0.000002 -0.000005 -0.000000 0.000003 -0.000000 0.000003 0.000003 -0.000000 0.000003 0.000003 -0.000001 0.000003 -0.000001 -0.000002 -0.000000 -0.000000 -0.000002 -0.000001 -0.000001 -0.000002 -0.000000 -0.000002 -0.000001 0.000000 0.584719 15.727335 9.746492 15.462674 26.318303 59.428144 0.000036 98.765225 -0.000042 6.072945 1.755781 -12.194539 -4.787108 -7.380647 -0.969385 17.294804 -25.325395 -0.358862 0.000003 0.000003 -0.000004 7.105295 -6.974260 86.153923 6.794372 -6.946515 88.728010 -0.000002 -0.000000 -0.000002 6.699189 -6.943776 88.026064 8.101340 -6.852322 99.576078 -0.000000 0.000001 0.000000 5.894436 -6.916490 88.045257 8.096920 -6.853065 99.538717 0.000003 -0.000001 -0.000000 4.179073 -6.669038 83.200617 8.100952 -6.852390 99.572697 -0.000001 -0.000000 0.000003 -0.000000 0.000002 -0.000000 -0.000000 0.000000 0.000000 -0.000000 0.000002 0.000000 -0.000001 0.000002 0.000000 -0.000001 0.000002 0.000000 -0.000001 0.000002 0.000000 -0.000001 0.000002 0.000001 0.000001 0.000000 -0.000000 0.000001 0.000000 -0.000000 0.000001 0.000000 -0.000000 0.000001 0.000000 -0.000000 0.000001 0.000000 -0.000000 0.000001 0.000000 -0.000000 0.000001 0.000000 -0.000000 -0.000000 0.000000 0.000000 0.000000 0.000002 -0.000000 
8.003961 82.889755 1.027632 -2.434369 -61.114648 -1.810476 0.000000 0.000000 -0.000000 -43.002731 9.622130 34.535748 53.830445 6.729168 -0.252596 -1.671639 10.020752 -19.248052 -0.000000 0.000000 -0.000000 -0.000001 0.000002 -0.000000 -20.674535 -14.126189 -36.832075 46.326410 5.501548 -0.660266 -21.190980 -8.432061 31.098415 -0.000000 -0.000000 0.000000 -0.000000 0.000001 -0.000001 9.233674 -0.809986 -0.752829 2.809382 -0.179261 -1.201010 2.806669 -0.201696 -1.200928 0.969149 2.849349 0.181978 0.969143 2.849343 0.181977 0.000001 -0.000002 0.000000 0.969070 2.849369 0.181980 0.969221 2.849387 0.181966 -0.000000 -0.000000 0.000001 0.000001 -0.000002 0.000000 0.503205 -12.772453 -10.747691 -14.610517 4.722447 -35.325759 -0.000026 -46.463284 -0.000035 15.875200 -13.458555 14.897922 -0.053298 5.013293 7.154779 -0.966502 24.316780 1.395921 0.000001 -0.000003 -0.000007 6.781433 6.908489 -83.985543 6.728853 6.879514 -88.728194 -0.000001 -0.000000 0.000001 5.692831 6.778277 -80.117224 7.476681 6.855475 -94.976478 -0.000001 -0.000004 0.000000 5.344448 6.757492 -83.942472 8.136897 6.766179 -100.539080 -0.000001 -0.000001 -0.000001 8.174561 7.083527 -83.174424 8.017683 2.700432 -99.510713 0.000000 0.000000 -0.000000 0.000000 -0.000000 -0.000001 0.000000 -0.000000 -0.000001 0.000000 -0.000001 -0.000001 -0.000000 -0.000002 0.000002 0.000001 -0.000002 0.000000 -0.000000 -0.000002 0.000002 -0.000001 -0.000002 0.000002 0.600102 15.518820 9.608574 15.196643 26.306047 59.673874 -0.000892 98.457566 0.000874 5.963439 1.559015 -12.013959 -4.787119 -7.380649 -0.969369 17.294801 -25.325416 -0.358867 -0.000000 -0.000000 -0.000000 7.105278 -6.974269 86.153930 6.794375 -6.946521 88.727989 -0.000001 -0.000001 -0.000001 6.699187 -6.943777 88.026078 8.101348 -6.852328 99.576092 0.000003 -0.000002 -0.000001 5.894443 -6.916491 88.045257 8.096906 -6.853043 99.538703 -0.000002 -0.000001 -0.000001 4.179062 -6.669004 83.200624 8.100942 -6.852393 99.572677 0.000003 0.000003 -0.000000 -0.000000 0.000002 -0.000000 -0.000000 0.000002 0.000001 -0.000000 0.000002 -0.000000 -0.000001 0.000000 0.000000 -0.000000 0.000000 0.000000 -0.000001 0.000000 0.000000 -0.000000 -0.000000 0.000000 0.000000 -0.000002 0.000000 0.000000 -0.000002 0.000000 0.000000 -0.000002 0.000000 0.000000 -0.000002 0.000000 0.000000 -0.000002 0.000000 0.000000 -0.000002 0.000000 0.000000 -0.000002 0.000000 -0.000000 -0.000001 0.000000 0.000000 0.000000 -0.000000 
7.863665 82.994576 0.925939 -2.328004 -60.807228 -1.621017 -0.000000 -0.000001 -0.000000 -42.839278 9.705804 34.251766 53.138510 6.783260 -0.122881 -1.159876 10.032246 -19.225174 -0.000000 0.000000 0.000000 0.000000 -0.000002 0.000001 -20.541309 -14.139115 -36.696725 46.457372 5.261791 -0.658116 -21.211421 -8.372883 30.881915 0.000000 -0.000000 -0.000000 0.000001 0.000001 -0.000002 9.206622 -0.836711 -0.768803 2.814443 -0.187162 -1.216047 2.811582 -0.209678 -1.215998 0.965788 2.838201 0.159408 0.965786 2.838196 0.159407 -0.000000 -0.000001 -0.000000 0.965787 2.838194 0.159408 0.965792 2.838170 0.159412 -0.000000 0.000001 -0.000000 -0.000000 -0.000001 -0.000000 0.496750 -12.900727 -10.810261 -14.701412 4.546175 -35.145138 0.000007 -46.608729 -0.000001 15.859761 -13.291843 14.946274 -0.053282 5.013313 7.154775 -0.966501 24.316792 1.395925 0.000000 -0.000000 -0.000008 6.781444 6.908482 -83.985543 6.728826 6.879508 -88.728187 -0.000001 0.000003 -0.000000 5.692857 6.778278 -80.117211 7.476693 6.855485 -94.976492 0.000001 0.000001 -0.000002 5.344476 6.757500 -83.942472 8.136907 6.766177 -100.539101 -0.000001 -0.000000 -0.000002 8.174573 7.083536 -83.174417 8.017670 2.700434 -99.510720 0.000001 -0.000005 0.000001 -0.000000 0.000003 0.000003 -0.000000 0.000003 0.000003 0.000000 0.000002 0.000003 0.000001 0.000001 -0.000001 0.000001 -0.000000 -0.000004 0.000001 0.000001 -0.000001 0.000000 0.000001 -0.000001 0.611245 15.347922 9.504636 14.871275 26.244536 59.857278 -0.001127 97.881392 0.001100 5.813994 1.370959 -11.800582 -4.787119 -7.380644 -0.969373 17.294814 -25.325389 -0.358860 0.000003 0.000000 0.000001 7.105276 -6.974255 86.153937 6.794363 -6.946547 88.727975 -0.000000 -0.000001 0.000000 6.699186 -6.943775 88.026078 8.101351 -6.852302 99.576098 0.000004 -0.000001 0.000002 5.894438 -6.916495 88.045257 8.096897 -6.853061 99.538710 0.000000 0.000001 -0.000001 4.179056 -6.669002 83.200590 8.100936 -6.852390 99.572677 -0.000002 0.000002 -0.000000 0.000000 -0.000001 0.000000 0.000000 -0.000003 0.000000 0.000000 -0.000001 -0.000001 -0.000001 0.000001 0.000000 -0.000001 0.000002 0.000000 -0.000001 0.000001 0.000000 -0.000001 0.000002 0.000000 0.000002 0.000001 -0.000001 0.000002 0.000001 -0.000001 0.000002 0.000001 -0.000001 0.000002 0.000001 -0.000001 0.000002 0.000001 -0.000001 0.000002 0.000001 -0.000001 0.000002 0.000001 -0.000001 -0.000001 0.000000 0.000000 -0.000000 -0.000001 -0.000000 
